<?xml version="1.0" encoding="UTF-8"?>
<!DOCTYPE svg PUBLIC "-//W3C//DTD SVG 1.1//EN" "http://www.w3.org/Graphics/SVG/1.1/DTD/svg11.dtd">
<!-- Creator: CorelDRAW 2019 (64-Bit) -->
<svg xmlns="http://www.w3.org/2000/svg" xml:space="preserve" width="4.2978mm" height="5.7304mm" version="1.1" style="shape-rendering:geometricPrecision; text-rendering:geometricPrecision; image-rendering:optimizeQuality; fill-rule:evenodd; clip-rule:evenodd"
viewBox="0 0 66.44 88.59"
 xmlns:xlink="http://www.w3.org/1999/xlink">
 <defs>
  <style type="text/css">
   <![CDATA[
    .fil0 {fill:white;fill-rule:nonzero}
   ]]>
  </style>
 </defs>
 <g id="Capa_x0020_1">
  <metadata id="CorelCorpID_0Corel-Layer"/>
  <path class="fil0" d="M58.14 11.08l-8.14 0 -0.97 -6.96c-0.32,-2.26 -2.44,-4.12 -4.73,-4.12l0 0 -22.15 0c-2.28,0 -4.41,1.85 -4.73,4.12l-0.97 6.96 -8.14 0c-4.59,0 -8.31,3.72 -8.31,8.3l0 2.77 66.44 0 0 -2.77c0,-4.59 -3.72,-8.3 -8.31,-8.3zm-14.51 -5.54l1.22 8.74 -23.26 0 1.22 -8.74 20.82 0z"/>
  <path class="fil0" d="M59.52 27.68l-52.6 0c-3.05,0 -5.31,2.48 -5.04,5.51l4.53 49.88c0.28,3.03 2.99,5.51 6.04,5.51l41.52 0c3.05,0 5.76,-2.48 6.04,-5.51l4.53 -49.88c0.28,-3.03 -1.99,-5.51 -5.04,-5.51zm-6.92 49.83l-8.3 0 0 -38.76 11.07 0 -2.77 38.76zm-13.84 0l-11.07 0 0 -38.76 11.07 0 0 38.76zm-16.61 0l-8.3 0 -2.77 -38.76 11.07 0 0 38.76z"/>
 </g>
</svg>
