<?xml version="1.0" encoding="iso-8859-1"?>
<!-- Generator: Adobe Illustrator 19.0.0, SVG Export Plug-In . SVG Version: 6.00 Build 0)  -->
<svg version="1.1" id="Capa_1" xmlns="http://www.w3.org/2000/svg" xmlns:xlink="http://www.w3.org/1999/xlink" x="0px" y="0px"
	 viewBox="0 0 512.001 512.001" style="enable-background:new 0 0 512.001 512.001;" xml:space="preserve">
<polyline style="fill:#96C133;" points="398.44,394.697 504.393,318.638 383.135,338.407 475.899,195.46 343.597,273.016 
	395.807,93.064 290.372,236.519 255.997,76.844 221.623,236.519 116.188,93.064 168.398,273.016 36.096,195.46 128.859,338.407 
	7.602,318.638 113.555,394.697 "/>
<path style="fill:#E58B25;" d="M459.986,435.151H52.009c44.873-42.227,119.504-69.855,203.989-69.855
	c15.319,0,30.314,0.912,44.863,2.656C366.569,375.799,423.254,400.578,459.986,435.151z"/>
<polyline style="fill:#499421;" points="313.287,369.646 355.763,297.348 276.686,315.596 255.997,241.081 235.309,315.596 
	156.232,297.348 198.708,369.646 "/>
<path style="fill:#FFC022;" d="M459.986,435.151h-318.25c36.732-34.573,93.417-59.351,159.125-67.199
	C366.569,375.799,423.254,400.578,459.986,435.151z"/>
<path d="M52.011,442.755c-2.024,0-4.042-0.803-5.539-2.393c-2.878-3.059-2.731-7.871,0.326-10.749
	c47.856-45.035,126.061-71.921,209.199-71.921c15.366,0,30.766,0.911,45.769,2.71c66.394,7.929,124.436,32.508,163.432,69.211
	c3.058,2.878,3.204,7.69,0.324,10.749c-2.878,3.059-7.691,3.204-10.749,0.325c-36.112-33.989-92.54-57.748-154.815-65.185
	c-14.408-1.728-29.197-2.603-43.961-2.603c-79.361,0-153.671,25.341-198.777,67.789C55.752,442.07,53.879,442.755,52.011,442.755z"
	/>
<path d="M417.798,388.408c-2.366,0-4.698-1.101-6.184-3.17c-2.448-3.412-1.669-8.163,1.743-10.611l60.281-43.274l-89.276,14.556
	c-2.97,0.483-5.945-0.827-7.591-3.348c-1.645-2.519-1.65-5.772-0.011-8.296l75.274-116.002L347.443,279.58
	c-2.685,1.573-6.06,1.352-8.516-0.56c-2.457-1.912-3.499-5.129-2.632-8.119l23.96-82.58c1.171-4.033,5.389-6.352,9.422-5.184
	c4.034,1.17,6.355,5.389,5.184,9.422l-18.641,64.247L472.051,188.9c3.041-1.782,6.907-1.242,9.343,1.307
	c2.435,2.548,2.8,6.436,0.881,9.392l-83.408,128.536l104.306-17.006c3.481-0.567,6.901,1.337,8.251,4.599
	c1.349,3.263,0.275,7.024-2.592,9.083l-86.604,62.17C420.884,387.944,419.334,388.408,417.798,388.408z"/>
<path d="M94.162,292.529c-2.49,0-4.929-1.222-6.385-3.465L29.716,199.6c-1.919-2.957-1.554-6.845,0.881-9.393
	c2.434-2.548,6.302-3.088,9.343-1.307l115.832,67.907L108.887,95.179c-1.027-3.54,0.634-7.308,3.941-8.938
	c3.307-1.63,7.308-0.654,9.49,2.317l95.426,129.848l30.823-143.157c0.754-3.503,3.851-6.003,7.434-6.003l0,0
	c3.582,0,6.679,2.501,7.434,6.004l30.814,143.156l95.437-129.848c2.183-2.971,6.181-3.947,9.49-2.317
	c3.306,1.63,4.966,5.398,3.94,8.939l-21.035,72.497c-1.171,4.034-5.39,6.352-9.422,5.184c-4.034-1.17-6.355-5.389-5.184-9.422
	l9.101-31.365l-80.08,108.95c-1.771,2.411-4.792,3.558-7.719,2.932c-2.926-0.627-5.212-2.911-5.842-5.836L256,112.979
	l-26.945,125.144c-0.63,2.925-2.916,5.209-5.842,5.835c-2.928,0.626-5.947-0.522-7.719-2.933l-80.07-108.951l40.273,138.829
	c0.867,2.99-0.175,6.207-2.632,8.119c-2.457,1.912-5.831,2.133-8.516,0.56l-104.59-61.314l40.574,62.52
	c2.286,3.523,1.285,8.232-2.239,10.519C97.016,292.133,95.581,292.529,94.162,292.529z"/>
<path d="M94.213,388.419c-1.536,0-3.085-0.463-4.429-1.427L3.17,324.811c-2.868-2.059-3.941-5.821-2.592-9.083
	c1.348-3.263,4.77-5.165,8.251-4.599l104.305,17.006l-12.029-18.535c-2.286-3.523-1.285-8.232,2.239-10.518
	c3.522-2.287,8.233-1.285,10.518,2.239l21.38,32.944c1.638,2.525,1.634,5.777-0.011,8.296c-1.645,2.519-4.624,3.832-7.591,3.348
	L38.36,331.354l60.293,43.284c3.412,2.449,4.191,7.2,1.743,10.612C98.911,387.318,96.579,388.419,94.213,388.419z"/>
<path d="M186.062,355.712c-2.609,0-5.147-1.342-6.564-3.754l-29.818-50.764c-1.539-2.619-1.371-5.903,0.427-8.351
	c1.798-2.448,4.881-3.591,7.839-2.91l71.981,16.613l18.746-67.498c0.914-3.292,3.91-5.569,7.327-5.569l0,0
	c3.416,0,6.413,2.279,7.327,5.57l18.735,67.497l71.991-16.613c2.957-0.684,6.044,0.461,7.839,2.91
	c1.798,2.449,1.965,5.732,0.427,8.351l-29.828,50.764c-2.128,3.621-6.787,4.83-10.409,2.704c-3.621-2.127-4.831-6.787-2.704-10.408
	l20.876-35.529l-61.864,14.276c-3.962,0.912-7.949-1.454-9.037-5.375l-13.358-48.12l-13.365,48.121
	c-1.089,3.922-5.072,6.288-9.037,5.374l-61.857-14.277l20.869,35.531c2.127,3.621,0.916,8.28-2.705,10.407
	C188.696,355.374,187.37,355.712,186.062,355.712z"/>
<g>
</g>
<g>
</g>
<g>
</g>
<g>
</g>
<g>
</g>
<g>
</g>
<g>
</g>
<g>
</g>
<g>
</g>
<g>
</g>
<g>
</g>
<g>
</g>
<g>
</g>
<g>
</g>
<g>
</g>
</svg>
