<?xml version="1.0" encoding="UTF-8"?>
<!DOCTYPE svg PUBLIC "-//W3C//DTD SVG 1.1//EN" "http://www.w3.org/Graphics/SVG/1.1/DTD/svg11.dtd">
<!-- Creator: CorelDRAW 2019 (64-Bit) -->
<svg xmlns="http://www.w3.org/2000/svg" xml:space="preserve" width="54.3866mm" height="96.0426mm" version="1.1" style="shape-rendering:geometricPrecision; text-rendering:geometricPrecision; image-rendering:optimizeQuality; fill-rule:evenodd; clip-rule:evenodd"
viewBox="0 0 2563 4526.07"
 xmlns:xlink="http://www.w3.org/1999/xlink">
 <defs>
  <style type="text/css">
   <![CDATA[
    .str0 {stroke:black;stroke-width:9.43;stroke-miterlimit:22.9256}
    .fil2 {fill:none}
    .fil0 {fill:#008ABB}
    .fil1 {fill:white;fill-opacity:0.301961}
   ]]>
  </style>
   <clipPath id="id0">
    <path d="M4.71 4.71l2553.58 0 0 4516.65 -2553.58 0 0 -4516.65z"/>
   </clipPath>
 </defs>
 <g id="Capa_x0020_1">
  <metadata id="CorelCorpID_0Corel-Layer"/>
  <polygon class="fil0" points="4.71,4.71 2558.29,4.71 2558.29,4521.36 4.71,4521.36 "/>
  <g style="clip-path:url(#id0)">
   <g id="_1323823296">
    <path id="1" class="fil1" d="M3040.51 2502.59l-230.28 -72.18c-0.03,-0.01 -0.05,-0.02 -0.08,-0.03 -0.03,-0 -0.06,-0.01 -0.08,-0.02l-230.28 -72.18c-18.29,-5.74 -38.11,-3.97 -55.11,4.92 -17,8.88 -29.76,24.15 -35.49,42.44l-35.68 113.86 -199.16 -381.01c-18.49,-35.38 -62.17,-49.07 -97.55,-30.58l-1409.46 736.76c-35.37,18.49 -49.06,62.17 -30.57,97.55l1003.68 1920.08c18.49,35.37 62.17,49.06 97.55,30.57l1409.46 -736.76c35.37,-18.49 49.06,-62.17 30.57,-97.55l-393.49 -752.78 223.33 -712.5c11.95,-38.09 -9.26,-78.65 -47.35,-90.59zm55.91 1558.78l-1281.34 669.79 -936.71 -1791.96 1281.34 -669.8 232.65 445.07 -252.65 806.05c-4.22,13.48 -4.4,27.89 -0.53,41.46l120.59 422.42c6.68,23.4 24.68,41.86 47.89,49.13 18.48,5.79 38.29,3.87 55.1,-4.92 4.31,-2.25 8.43,-4.96 12.26,-8.09l340.11 -278.02c10.94,-8.94 19.01,-20.88 23.23,-34.35l65.01 -207.39 293.04 560.6 0 0zm-781.42 -410.16l204.86 64.21 -151.24 123.63 -53.62 -187.84zm307.04 -55.26l-322.75 -101.16 306.24 -977.05 92.41 28.97 -186.76 595.89c-11.95,38.1 9.26,78.66 47.36,90.59 19.03,5.97 38.71,3.65 55.1,-4.92 16.4,-8.57 29.51,-23.4 35.49,-42.44l186.77 -595.89 92.41 28.96 -306.26 977.03z"/>
   </g>
  </g>
  <polygon class="fil2 str0" points="4.71,4.71 2558.29,4.71 2558.29,4521.36 4.71,4521.36 "/>
 </g>
</svg>
