<?xml version="1.0" encoding="UTF-8"?>
<!DOCTYPE svg PUBLIC "-//W3C//DTD SVG 1.1//EN" "http://www.w3.org/Graphics/SVG/1.1/DTD/svg11.dtd">
<!-- Creator: CorelDRAW 2019 (64-Bit) -->
<svg xmlns="http://www.w3.org/2000/svg" xml:space="preserve" width="54.1866mm" height="95.8426mm" version="1.1" style="shape-rendering:geometricPrecision; text-rendering:geometricPrecision; image-rendering:optimizeQuality; fill-rule:evenodd; clip-rule:evenodd"
viewBox="0 0 2612.75 4621.31"
 xmlns:xlink="http://www.w3.org/1999/xlink">
 <defs>
  <style type="text/css">
   <![CDATA[
    .fil3 {fill:none}
    .fil0 {fill:#008ABB}
    .fil2 {fill:white;fill-opacity:0.301961}
    .fil1 {fill:white;fill-rule:nonzero;fill-opacity:0.301961}
   ]]>
  </style>
   <clipPath id="id0">
    <path d="M-0 0l2612.75 0 0 4621.31 -2612.75 0 0 -4621.31z"/>
   </clipPath>
 </defs>
 <g id="Capa_x0020_1">
  <metadata id="CorelCorpID_0Corel-Layer"/>
  <polygon class="fil0" points="-0,0 2612.75,0 2612.75,4621.31 -0,4621.31 "/>
  <g style="clip-path:url(#id0)">
   <g id="_1162946832">
    <g>
     <path id="1" class="fil1" d="M-119.87 4013.89l-169.5 81.73 268.99 557.85c15.52,32.19 19.39,59.41 12.68,81.16 -6.18,22.82 -21.87,39.63 -44.39,50.49 -22.53,10.86 -45.47,12.67 -68.24,3.81 -21.7,-9.37 -40.59,-29.34 -55.6,-60.46l-269 -557.85 -169.49 81.73c-26.82,12.93 -49.23,15.8 -67.29,11.29 -18.56,-5.6 -32.75,-18.58 -42.07,-37.89 -9.31,-19.31 -10.63,-38.51 -3.46,-56.51 8.25,-18.53 24.98,-33.2 50.73,-45.62l494.55 -238.47c26.82,-12.93 49.79,-17.41 68.87,-10.73 18.57,5.59 33.31,16.99 42.63,36.3 9.31,19.31 9.57,39.01 2.38,57.03 -7.7,16.93 -24.98,33.2 -51.8,46.13zm327.9 238.55l-177.95 -369.04c-15.52,-32.19 -18.88,-58.33 -12.68,-81.15 6.18,-22.82 20.8,-39.12 44.41,-50.5 23.6,-11.38 46.53,-13.19 68.23,-3.81 21.71,9.37 40.6,29.35 55.6,60.46l182.09 377.62c20.69,42.91 43.13,75.73 66.74,100.04 22.55,24.82 50.58,39.08 83.02,43.27 32.43,4.2 70.37,-4.84 114.36,-26.06 60.08,-28.97 95.23,-65.75 105.46,-110.35 9.16,-44.09 -1.77,-99.64 -33.32,-165.08l-183.64 -380.84c-15.52,-32.19 -19.39,-59.41 -12.68,-81.15 6.18,-22.82 20.8,-39.12 44.39,-50.5 23.6,-11.38 45.47,-12.67 68.25,-3.82 21.18,8.29 40.08,28.27 55.6,60.46l177.95 369.03c28.97,60.08 47.91,113.09 55.24,158.48 7.86,46.45 1.88,91.64 -15.3,138.27 -15.48,39.21 -38.87,72.95 -70.72,102.86 -30.27,30.46 -71.66,57.03 -121.01,80.83 -59.01,28.45 -112.53,46.34 -161.65,54.15 -49.12,7.82 -92.76,5.06 -132.51,-8.83 -39.76,-13.88 -76.7,-38.38 -108.67,-74.53 -33.04,-35.64 -63.29,-81.88 -91.22,-139.81zm1171.12 -316.13l-359.26 -429.7 255.54 529.96c13.97,28.96 18.4,54.6 12.25,74.76 -5.63,21.22 -20.25,37.52 -41.7,47.87 -20.37,9.83 -41.16,10.59 -60.76,2.86 -21.18,-8.29 -37.97,-26.65 -52.46,-56.68l-292.79 -607.2c-16.55,-34.33 -18.84,-61 -7.36,-81.07 12.56,-20.61 33.57,-37.34 62.53,-51.31l48.29 -23.28c28.96,-13.96 51.45,-22.17 66.91,-23.01 15.46,-0.84 29.77,4.16 42.93,15.01 12.64,9.76 31.01,28.67 53.53,56.16l314.35 366.73 -91.21 -474.33c-6.41,-35.25 -10.85,-60.88 -10.62,-76.85 -0.27,-17.05 4.73,-31.37 15,-42.93 10.29,-11.58 30.71,-24.06 59.68,-38.03l48.28 -23.28c28.96,-13.96 55.15,-19.99 79.07,-16.97 22.85,3.52 42.3,21.91 58.84,56.24l292.79 607.2c13.97,28.96 18.4,54.6 12.25,74.76 -5.63,21.22 -20.24,37.52 -41.7,47.87 -20.37,9.83 -41.17,10.6 -61.28,1.79 -20.66,-7.22 -37.97,-26.65 -51.94,-55.61l-255.54 -529.96 112.51 548.68c7.5,34.72 12.44,61.43 14.32,79.04 1.88,17.6 -0.5,34.62 -8.23,54.22 -8.25,18.53 -23.4,33.76 -48.07,45.65 -18.24,8.79 -35.32,11.75 -51.81,10.44 -16.5,-1.3 -31.33,-7.38 -43.46,-16.07 -13.71,-9.26 -25.29,-19.55 -36.82,-32.49 -10.46,-13.47 -21.98,-26.42 -34.04,-40.45zm1139.32 -513.67l-83.04 -78.97 -312.18 150.53 11.11 116.28c4.16,44.27 4.22,77.3 0.78,94.83 -4,19.12 -17,33.32 -40.59,44.69 -19.32,9.32 -40.1,10.09 -61.83,3.38 -21.75,-6.7 -37.53,-20.25 -45.81,-37.41 -5.17,-10.72 -8.2,-22.49 -10.67,-35.85 -1.96,-12.27 -3.28,-31.47 -5.08,-54.41l-44.23 -593.51c-1.35,-16.53 -2.13,-37.31 -4.45,-61.32 -2.33,-24 -1.5,-44.23 0.35,-62.32 3.45,-17.53 10.09,-33.95 19.89,-49.25 11.39,-14.75 26.49,-27.32 47.95,-37.67 21.45,-10.34 41.76,-14.85 60.4,-14.58 18.08,1.86 35.06,6.89 49.85,15.63 15.85,8.22 30.09,18.54 42.71,30.98 13.68,11.91 30.49,27.61 52.05,47.62l439.6 398.9c34.2,29.78 55.15,54.06 63.43,71.22 8.27,17.17 8.53,36.88 0.75,59.15 -6.69,21.74 -21.33,38.04 -42.77,48.38 -11.81,5.7 -23.56,8.73 -34.21,8.57 -10.66,-0.16 -21.28,-2.97 -31.33,-7.38 -8.99,-4.92 -21.12,-13.62 -34.79,-25.54 -14.76,-11.4 -26.85,-22.75 -37.9,-31.96zm-410.83 -65.03l229.58 -110.71 -268.47 -260.59 38.89 371.3zm886.65 -426.22l-142.69 68.8 105.01 217.77c15.01,31.12 18.36,57.26 12.17,80.08 -6.74,24.4 -21.36,40.71 -43.89,51.57 -23.6,11.38 -46.52,13.18 -68.23,3.8 -21.7,-9.37 -40.6,-29.33 -55.09,-59.37l-285.55 -592.19c-16.55,-34.33 -20.93,-62.63 -12.09,-85.4 9.37,-21.7 30.43,-41.11 64.76,-57.66l199.54 -96.22c58.99,-28.44 106.12,-45.88 142.96,-51.75 35.25,-6.41 69.88,-5.93 102.23,3.6 32.36,9.52 61.42,25.91 87.18,49.2 27.35,23.82 48.75,54.5 66.34,90.97 37.76,78.31 42.62,148.69 14,212.74 -29.14,62.98 -91.18,118.01 -186.66,164.05zm-207.23 -333.76l-105.13 50.69 113.29 234.94 105.13 -50.69c36.47,-17.59 65.51,-36.88 86.57,-56.29 19.98,-18.9 33.09,-41.08 37.67,-64.44 4.6,-23.39 -0.34,-50.09 -13.79,-77.98 -16.55,-34.33 -39.15,-56.49 -69.88,-68.11 -33.38,-11.67 -84.13,-1.74 -153.86,31.89z"/>
     <path class="fil2" d="M19.36 335.46c171.58,-82.74 256.19,-114.24 448.94,-116.85 18.15,-0.24 23.53,-1.12 41.32,-0.14 56.07,3.09 145.69,11.85 196.28,28.8 62.08,20.79 51.43,9.46 110.58,37.87 13.53,6.5 22.06,8.26 36.53,13.53 103.14,37.53 259.54,159.82 327.7,243.3 155.59,190.51 211.96,360.4 227.44,599.64 1.77,27.59 0.99,37.22 -1.32,63.74 -2.1,24.08 -1.91,39.02 -4.42,62.65l-40.12 178.57c-14.22,39.99 -27.12,74.45 -44.97,112.69 -15.61,33.44 -37.8,76.16 -60.31,107.32 -27.78,38.45 -45.85,67.91 -80.02,105.02 -138.56,150.51 -302.96,257.23 -507.33,298.81 -185.32,37.7 -335.34,28.14 -507.03,-31.83l-166.67 -74.19c-112.54,-62.22 -268.07,-211.52 -331.95,-336.15 -16,-31.22 -26.11,-36.8 -40.44,-68.84 -104.54,-233.6 -116.25,-483.38 -33.8,-722.87 8.58,-24.89 13.23,-32.45 23.7,-55.92 31.88,-71.53 76.95,-157.77 129.92,-215.99 74.74,-82.15 152.1,-169.44 275.95,-229.16zm-725.1 1301.17c60.33,125.1 64.5,143.69 147.2,261.18 60.14,85.4 143.61,167.28 221.75,231.55 155.64,127.97 156.25,31.82 34.02,381.74 -34.02,97.35 -65.92,188.7 -99.94,286.06 -32.51,93.06 -129.26,344.77 -137.18,433.56 -28.38,317.79 335.61,444.25 507.46,181.86 52.93,-80.83 128.04,-322.36 163.66,-424.31l174.18 -498.58c40.88,-117.72 36.89,-52.37 341.74,-79.08 305.94,-26.81 640.21,-226.11 822.25,-463.47 84.01,-109.54 137.57,-198.88 185.94,-329.41 8.14,-21.99 16.2,-29.55 23.07,-51.55 6.31,-20.22 5.19,-29.16 12.63,-50.61 43.78,-126.28 50.48,-249.68 52.88,-380.46 7.15,-391.5 -234.22,-822.84 -556.29,-1032.91 -153.03,-99.82 -326.68,-175.04 -507.05,-202.46 -94.15,-14.32 -121.17,-16.58 -222.96,-18.09 -343.32,-5.12 -756.38,187.39 -966.89,461.74 -68.61,89.42 -65.74,80.6 -125.25,180.93 -20.05,33.8 -33.66,63.29 -50.13,97.12 -9.8,20.2 -12.8,26.01 -20.19,47.97 -7.98,23.73 -13.62,30.22 -22.73,51.66 -14.17,33.34 -45.22,171.77 -53.74,205.93 -48.78,195.45 -14.4,523.04 75.58,709.63z"/>
     <path class="fil1" d="M720.43 654.39l-265.41 127.98 421.18 873.46c24.3,50.39 30.37,93.01 19.87,127.06 -9.69,35.72 -34.26,62.06 -69.53,79.07 -35.27,17.01 -71.18,19.83 -106.84,5.97 -34,-14.66 -63.58,-45.95 -87.06,-94.66l-421.19 -873.46 -265.39 127.97c-42,20.25 -77.1,24.75 -105.35,17.68 -29.07,-8.76 -51.3,-29.09 -65.88,-59.33 -14.58,-30.24 -16.65,-60.29 -5.4,-88.49 12.93,-29 39.12,-51.99 79.43,-71.42l774.36 -373.4c41.99,-20.25 77.94,-27.23 107.83,-16.8 29.06,8.76 52.16,26.61 66.74,56.84 14.58,30.24 14.97,61.1 3.73,89.3 -12.07,26.51 -39.11,51.98 -81.11,72.23z"/>
    </g>
   </g>
  </g>
  <polygon class="fil3" points="-0,0 2612.75,0 2612.75,4621.31 -0,4621.31 "/>
 </g>
</svg>
