<svg height="512" viewBox="0 0 64 64" width="512" xmlns="http://www.w3.org/2000/svg"><path d="m16 56a1 1 0 0 0 -1 1v4a1 1 0 0 0 1 1h32a1 1 0 0 0 1-1v-4a1 1 0 0 0 -1-1h-2v-42h2v-2h-4v-2h4v-2h-2v-3a3 3 0 0 0 -3-3h-22a3 3 0 0 0 -3 3v3h-2v2h4v2h-4v2h2v42zm31 4h-30v-2h30zm-3-55v3h-8.556a3.875 3.875 0 0 0 0-4h7.556a1 1 0 0 1 1 1zm-14 1a2 2 0 1 1 2 2 2 2 0 0 1 -2-2zm-10-1a1 1 0 0 1 1-1h7.556a3.875 3.875 0 0 0 0 4h-8.556zm2 5h20v2h-20zm-2 4h24v42h-24z"/><path d="m22 16v26h20v-26zm8 2h4v4h-4zm4 10h-4v-4h4zm0 6h-4v-4h4zm-10-16h4v4h-4zm0 6h4v4h-4zm0 6h4v4h-4zm4 10h-4v-4h4zm6 0h-4v-4h4zm6 0h-4v-4h4zm0-6h-4v-4h4zm0-6h-4v-4h4zm0-10v4h-4v-4z"/><path d="m22 54h20v-10h-20zm18-2h-16v-2h16zm-16-6h16v2h-16z"/></svg>