<?xml version="1.0" encoding="UTF-8" standalone="no"?>
<svg
   xmlns:dc="http://purl.org/dc/elements/1.1/"
   xmlns:cc="http://creativecommons.org/ns#"
   xmlns:rdf="http://www.w3.org/1999/02/22-rdf-syntax-ns#"
   xmlns:svg="http://www.w3.org/2000/svg"
   xmlns="http://www.w3.org/2000/svg"
   xmlns:sodipodi="http://sodipodi.sourceforge.net/DTD/sodipodi-0.dtd"
   xmlns:inkscape="http://www.inkscape.org/namespaces/inkscape"
   height="512pt"
   viewBox="0 0 512 512"
   width="512pt"
   version="1.1"
   id="svg4"
   sodipodi:docname="irs-postes.svg"
   inkscape:version="0.92.4 (5da689c313, 2019-01-14)">
  <metadata
     id="metadata10">
    <rdf:RDF>
      <cc:Work
         rdf:about="">
        <dc:format>image/svg+xml</dc:format>
        <dc:type
           rdf:resource="http://purl.org/dc/dcmitype/StillImage" />
      </cc:Work>
    </rdf:RDF>
  </metadata>
  <defs
     id="defs8" />
  <sodipodi:namedview
     pagecolor="#ffffff"
     bordercolor="#666666"
     borderopacity="1"
     objecttolerance="10"
     gridtolerance="10"
     guidetolerance="10"
     inkscape:pageopacity="0"
     inkscape:pageshadow="2"
     inkscape:window-width="1920"
     inkscape:window-height="1051"
     id="namedview6"
     showgrid="false"
     inkscape:zoom="0.34570313"
     inkscape:cx="341.33333"
     inkscape:cy="341.33333"
     inkscape:window-x="-9"
     inkscape:window-y="-9"
     inkscape:window-maximized="1"
     inkscape:current-layer="svg4" />
  <path
     d="m497 112.46875h-17.132812v-17.136719c0-8.28125-6.71875-15-15-15-8.285157 0-15 6.71875-15 15v17.136719h-66.398438v-17.136719c0-8.28125-6.71875-15-15-15-8.285156 0-15 6.71875-15 15v17.136719h-50.335938v-97.46875c0-8.285156-6.714843-15-15-15h-64.265624c-8.285157 0-15 6.714844-15 15v97.46875h-50.332032v-17.136719c0-8.28125-6.71875-15-15-15-8.285156 0-15 6.71875-15 15v17.136719h-66.402344v-17.136719c0-8.28125-6.714843-15-15-15-8.28125 0-15 6.71875-15 15v17.136719h-17.132812c-8.285156 0-15 6.714844-15 15v64.265625c0 8.285156 6.714844 15 15 15h90.1875l103.679688 103.679687v26.984376h-65.332032c-8.285156 0-15 6.71875-15 15v96.402343c0 8.285157 6.714844 15 15 15h65.332032v33.199219c0 8.285156 6.714843 15 15 15 8.285156 0 15-6.714844 15-15v-290.265625h34.265624v290.265625c0 8.285156 6.71875 15 15 15 8.285157 0 15-6.714844 15-15v-33.199219h65.335938c8.28125 0 15-6.714843 15-15v-96.402343c0-8.28125-6.71875-15-15-15h-65.335938v-26.984376l103.679688-103.679687h90.1875c8.285156 0 15-6.71875 15-15v-64.269531c0-8.28125-6.714844-14.996094-15-14.996094zm-258.132812-82.46875h34.265624v82.46875h-34.265624zm-80.335938 403.800781v-66.402343h50.335938v66.402343zm50.335938-165.8125-61.253907-61.253906h61.253907zm144.601562 99.410157v66.402343h-50.335938v-66.402343zm-50.335938-99.410157v-61.253906h61.253907zm178.867188-91.253906h-452v-34.269531h452zm0 0"
     id="path2"
     style="fill:#2c689f;fill-opacity:1" />
</svg>
