<svg height="480pt" viewBox="-48 0 480 480.00227" width="480pt" xmlns="http://www.w3.org/2000/svg"><path d="m0 472.003906c0 4.417969 3.582031 8 8 8h368c4.417969 0 8-3.582031 8-8 0-4.417968-3.582031-8-8-8h-66.3125l-58.398438-168h52.710938v16c0 4.417969 3.582031 8 8 8s8-3.582031 8-8v-24.105468c-.007812-.964844-.203125-1.921876-.566406-2.816407-.117188-.25-.25-.492187-.402344-.726562-.292969-.59375-.664062-1.148438-1.101562-1.648438-.25-.253906-.519532-.492187-.800782-.710937-.214844-.230469-.445312-.449219-.6875-.648438l-68.441406-45.625v-35.71875h56v16c0 4.417969 3.582031 8 8 8s8-3.582031 8-8v-24.105468c-.007812-.964844-.203125-1.921876-.566406-2.816407-.117188-.25-.25-.492187-.402344-.726562-.292969-.59375-.664062-1.148438-1.101562-1.648438-.25-.253906-.519532-.492187-.800782-.710937-.214844-.230469-.445312-.449219-.6875-.648438l-68.441406-45.625v-35.71875h56v16c0 4.417969 3.582031 8 8 8s8-3.582031 8-8v-24.105468c-.007812-.964844-.203125-1.921876-.566406-2.816407-.117188-.25-.25-.492187-.402344-.726562-.292969-.59375-.664062-1.148438-1.101562-1.648438-.25-.253906-.519532-.492187-.800782-.710937-.214844-.230469-.445312-.449219-.6875-.648438l-67.542968-45.035156 6.941406-34.710938c.644531-3.214843-.746094-6.5-3.5-8.28125s-6.316406-1.703124-8.988282.203126l-51.351562 36.648437-51.351562-36.679687c-2.675782-1.914063-6.25-1.992188-9.007813-.199219-2.757813 1.789062-4.136719 5.085937-3.480469 8.308593l6.945313 34.746094-67.542969 45.03125c-.242188.199219-.472656.417969-.6875.648438-.285156.21875-.550781.457031-.800781.710937-.4375.5-.808594 1.054688-1.105469 1.648438-.148438.234375-.28125.476562-.398438.726562-.367187.894531-.558593 1.851563-.570312 2.816407v24.074218c0 4.417969 3.582031 8 8 8s8-3.582031 8-8v-16h56v35.71875l-68.4375 45.601563c-.242188.199219-.472656.414062-.6875.644531-.285156.222656-.550781.457031-.800781.714844-.4375.5-.808594 1.050781-1.105469 1.648437-.148438.230469-.28125.476563-.398438.726563-.367187.894531-.558593 1.851562-.570312 2.816406v24.128906c0 4.417969 3.582031 8 8 8s8-3.582031 8-8v-16h56v35.71875l-68.4375 45.601563c-.242188.199219-.472656.414062-.6875.644531-.285156.222656-.550781.457031-.800781.714844-.4375.5-.808594 1.050781-1.105469 1.648437-.148438.230469-.28125.476563-.398438.726563-.367187.894531-.558593 1.851562-.570312 2.816406v24.128906c0 4.417969 3.582031 8 8 8s8-3.582031 8-8v-16h52.746094l-58.402344 168h-66.34375c-4.417969 0-8 3.582032-8 8zm248-409.058594 37.601562 25.058594h-37.601562zm0 96 37.601562 25.058594h-37.601562zm-146.398438 305.058594 90.398438-77.464844 90.402344 77.464844zm130.398438-211.503906v27.503906h-22.917969zm-40.535156 23.652344-28.152344-28.148438h51.609375zm17.617187-44.148438 22.917969-27.503906v27.503906zm-17.601562-3.851562-28.167969-28.148438h51.609375zm17.601562-44.148438 22.917969-27.503906v27.503906zm-17.601562-3.851562-28.167969-28.148438h51.609375zm17.601562-44.148438 22.917969-27.503906v27.503906zm5.839844-32-23.457031 28.148438-28.152344-28.148438zm-5.839844-16 22.917969-27.503906v27.503906zm-57.082031 0v-20.691406l20.6875 20.691406zm20.6875 48h-20.6875v-20.691406zm0 48h-20.6875v-20.691406zm0 48h-20.6875v-20.691406zm0 48h-20.6875v-20.691406zm53.832031 16-34.519531 63.292969-34.519531-63.292969zm38.34375 87.824219 21.851563 62.8125-73.113282-62.636719h50.398438c.292969-.042968.582031-.101562.863281-.175781zm-16.863281-128.882813 37.601562 25.058594h-37.601562zm11.359375 113.058594h-53.878906l32.921875-60.320312zm-23.199219-341.730468-2.71875 13.730468h-16.472656zm-21.238281 29.730468-23.457031 28.148438-28.152344-28.148438zm-47.890625-16h-16.46875l-2.746094-13.730468zm-68.628906 48 37.597656-25.058594v25.058594zm0 96 37.597656-25.058594v25.058594zm0 96 37.597656-25.058594v25.058594zm47.199218 27.679688 32.917969 60.320312h-53.878906zm-26.488281 76.144531c.292969.074219.589844.132813.886719.175781h50.402344l-73.089844 62.636719zm0 0"/></svg>