<?xml version="1.0" encoding="UTF-8" standalone="no"?>
<!-- Generator: Adobe Illustrator 19.0.0, SVG Export Plug-In . SVG Version: 6.00 Build 0)  -->

<svg
   xmlns:dc="http://purl.org/dc/elements/1.1/"
   xmlns:cc="http://creativecommons.org/ns#"
   xmlns:rdf="http://www.w3.org/1999/02/22-rdf-syntax-ns#"
   xmlns:svg="http://www.w3.org/2000/svg"
   xmlns="http://www.w3.org/2000/svg"
   xmlns:sodipodi="http://sodipodi.sourceforge.net/DTD/sodipodi-0.dtd"
   xmlns:inkscape="http://www.inkscape.org/namespaces/inkscape"
   version="1.1"
   id="Capa_1"
   x="0px"
   y="0px"
   viewBox="0 0 512.025 512.025"
   style="enable-background:new 0 0 512.025 512.025;"
   xml:space="preserve"
   sodipodi:docname="irs-antenas.svg"
   inkscape:version="0.92.4 (5da689c313, 2019-01-14)"><metadata
   id="metadata53"><rdf:RDF><cc:Work
       rdf:about=""><dc:format>image/svg+xml</dc:format><dc:type
         rdf:resource="http://purl.org/dc/dcmitype/StillImage" /></cc:Work></rdf:RDF></metadata><defs
   id="defs51" /><sodipodi:namedview
   pagecolor="#ffffff"
   bordercolor="#666666"
   borderopacity="1"
   objecttolerance="10"
   gridtolerance="10"
   guidetolerance="10"
   inkscape:pageopacity="0"
   inkscape:pageshadow="2"
   inkscape:window-width="1920"
   inkscape:window-height="1051"
   id="namedview49"
   showgrid="false"
   inkscape:zoom="0.46091497"
   inkscape:cx="-235.40134"
   inkscape:cy="256.01251"
   inkscape:window-x="-9"
   inkscape:window-y="-9"
   inkscape:window-maximized="1"
   inkscape:current-layer="g16" />
<g
   id="g16">
	<g
   id="g14"
   style="fill:#2c689f;fill-opacity:1">
		<g
   id="g12"
   style="fill:#2c689f;fill-opacity:1">
			<path
   d="M379.888,127.213c1.354,0.563,2.75,0.823,4.125,0.823c4.167,0,8.125-2.458,9.833-6.552     c7.625-18.229,11.5-37.563,11.5-57.458s-3.875-39.229-11.5-57.458c-2.271-5.438-8.5-8-13.958-5.729     c-5.417,2.281-7.979,8.521-5.708,13.958c6.521,15.615,9.833,32.177,9.833,49.229s-3.313,33.615-9.833,49.229     C371.909,118.692,374.471,124.932,379.888,127.213z"
   id="path2"
   style="fill:#2c689f;fill-opacity:1" />
			<path
   d="M128.013,128.036c1.375,0,2.771-0.26,4.125-0.823c5.417-2.281,7.979-8.521,5.708-13.958     c-6.521-15.615-9.833-32.177-9.833-49.229s3.313-33.615,9.833-49.229c2.271-5.438-0.292-11.677-5.708-13.958     c-5.479-2.292-11.688,0.281-13.958,5.729c-7.625,18.229-11.5,37.563-11.5,57.458s3.875,39.229,11.5,57.458     C119.888,125.577,123.846,128.036,128.013,128.036z"
   id="path4"
   style="fill:#2c689f;fill-opacity:1" />
			<path
   d="M437.346,490.692H402.58L288.892,118.646c18.563-11.216,31.121-31.395,31.121-54.621c0-35.292-28.708-64-64-64     s-64,28.708-64,64c0,23.225,12.559,43.402,31.118,54.62L109.445,490.692H74.679c-5.896,0-10.667,4.771-10.667,10.667     s4.771,10.667,10.667,10.667h85.333c5.896,0,10.667-4.771,10.667-10.667s-4.771-10.667-10.667-10.667h-22.306l118.306-170.883     l118.306,170.883h-22.306c-5.896,0-10.667,4.771-10.667,10.667s4.771,10.667,10.667,10.667h85.333     c5.896,0,10.667-4.771,10.667-10.667S443.242,490.692,437.346,490.692z M213.346,64.025c0-23.531,19.146-42.667,42.667-42.667     s42.667,19.135,42.667,42.667s-19.146,42.667-42.667,42.667S213.346,87.557,213.346,64.025z M147.575,438.955l58.464-191.328     l36.999,53.441L147.575,438.955z M213.985,221.622l29.01-94.94c4.206,0.872,8.556,1.344,13.017,1.344     c4.46,0,8.81-0.47,13.014-1.342l29.012,94.941l-42.026,60.702L213.985,221.622z M268.988,301.068l36.997-53.439l58.465,191.324     L268.988,301.068z"
   id="path6"
   style="fill:#2c689f;fill-opacity:1" />
			<path
   d="M342.909,106.161c1.188,0.427,2.396,0.625,3.583,0.625c4.375,0,8.479-2.719,10.042-7.083     c4.083-11.417,6.146-23.427,6.146-35.677c0-12.135-2.042-24.052-6.042-35.427c-1.979-5.552-8.146-8.448-13.604-6.51     c-5.563,1.969-8.479,8.052-6.521,13.615c3.208,9.083,4.833,18.615,4.833,28.323c0,9.802-1.646,19.396-4.896,28.51     C334.471,98.077,337.367,104.182,342.909,106.161z"
   id="path8"
   style="fill:#2c689f;fill-opacity:1" />
			<path
   d="M165.533,106.786c1.188,0,2.396-0.198,3.583-0.625c5.542-1.979,8.438-8.083,6.458-13.625     c-3.25-9.115-4.896-18.708-4.896-28.51c0-9.708,1.625-19.24,4.833-28.323c1.958-5.563-0.958-11.646-6.521-13.615     c-5.438-1.885-11.646,0.969-13.604,6.51c-4,11.375-6.042,23.292-6.042,35.427c0,12.25,2.063,24.26,6.146,35.677     C157.054,104.067,161.158,106.786,165.533,106.786z"
   id="path10"
   style="fill:#2c689f;fill-opacity:1" />
		</g>
	</g>
</g>
<g
   id="g18">
</g>
<g
   id="g20">
</g>
<g
   id="g22">
</g>
<g
   id="g24">
</g>
<g
   id="g26">
</g>
<g
   id="g28">
</g>
<g
   id="g30">
</g>
<g
   id="g32">
</g>
<g
   id="g34">
</g>
<g
   id="g36">
</g>
<g
   id="g38">
</g>
<g
   id="g40">
</g>
<g
   id="g42">
</g>
<g
   id="g44">
</g>
<g
   id="g46">
</g>
</svg>