<?xml version="1.0" encoding="UTF-8" standalone="no"?>
<svg
   xmlns:dc="http://purl.org/dc/elements/1.1/"
   xmlns:cc="http://creativecommons.org/ns#"
   xmlns:rdf="http://www.w3.org/1999/02/22-rdf-syntax-ns#"
   xmlns:svg="http://www.w3.org/2000/svg"
   xmlns="http://www.w3.org/2000/svg"
   xmlns:sodipodi="http://sodipodi.sourceforge.net/DTD/sodipodi-0.dtd"
   xmlns:inkscape="http://www.inkscape.org/namespaces/inkscape"
   height="512"
   viewBox="0 0 64 64"
   width="512"
   version="1.1"
   id="svg8"
   sodipodi:docname="irs-armarios.svg"
   inkscape:version="0.92.4 (5da689c313, 2019-01-14)">
  <metadata
     id="metadata14">
    <rdf:RDF>
      <cc:Work
         rdf:about="">
        <dc:format>image/svg+xml</dc:format>
        <dc:type
           rdf:resource="http://purl.org/dc/dcmitype/StillImage" />
      </cc:Work>
    </rdf:RDF>
  </metadata>
  <defs
     id="defs12" />
  <sodipodi:namedview
     pagecolor="#ffffff"
     bordercolor="#666666"
     borderopacity="1"
     objecttolerance="10"
     gridtolerance="10"
     guidetolerance="10"
     inkscape:pageopacity="0"
     inkscape:pageshadow="2"
     inkscape:window-width="1920"
     inkscape:window-height="1051"
     id="namedview10"
     showgrid="false"
     inkscape:zoom="0.4609375"
     inkscape:cx="-235.38983"
     inkscape:cy="256"
     inkscape:window-x="-9"
     inkscape:window-y="-9"
     inkscape:window-maximized="1"
     inkscape:current-layer="svg8" />
  <path
     d="m16 56a1 1 0 0 0 -1 1v4a1 1 0 0 0 1 1h32a1 1 0 0 0 1-1v-4a1 1 0 0 0 -1-1h-2v-42h2v-2h-4v-2h4v-2h-2v-3a3 3 0 0 0 -3-3h-22a3 3 0 0 0 -3 3v3h-2v2h4v2h-4v2h2v42zm31 4h-30v-2h30zm-3-55v3h-8.556a3.875 3.875 0 0 0 0-4h7.556a1 1 0 0 1 1 1zm-14 1a2 2 0 1 1 2 2 2 2 0 0 1 -2-2zm-10-1a1 1 0 0 1 1-1h7.556a3.875 3.875 0 0 0 0 4h-8.556zm2 5h20v2h-20zm-2 4h24v42h-24z"
     id="path2"
     style="fill:#2c689f;fill-opacity:1" />
  <path
     d="m22 16v26h20v-26zm8 2h4v4h-4zm4 10h-4v-4h4zm0 6h-4v-4h4zm-10-16h4v4h-4zm0 6h4v4h-4zm0 6h4v4h-4zm4 10h-4v-4h4zm6 0h-4v-4h4zm6 0h-4v-4h4zm0-6h-4v-4h4zm0-6h-4v-4h4zm0-10v4h-4v-4z"
     id="path4"
     style="fill:#2c689f;fill-opacity:1" />
  <path
     d="m22 54h20v-10h-20zm18-2h-16v-2h16zm-16-6h16v2h-16z"
     id="path6"
     style="fill:#2c689f;fill-opacity:1" />
</svg>
