<?xml version="1.0" encoding="UTF-8"?>
<!DOCTYPE svg PUBLIC "-//W3C//DTD SVG 1.1//EN" "http://www.w3.org/Graphics/SVG/1.1/DTD/svg11.dtd">
<!-- Creator: CorelDRAW 2019 (64-Bit) -->
<svg xmlns="http://www.w3.org/2000/svg" xml:space="preserve" width="5.7408mm" height="5.7305mm" version="1.1" style="shape-rendering:geometricPrecision; text-rendering:geometricPrecision; image-rendering:optimizeQuality; fill-rule:evenodd; clip-rule:evenodd"
viewBox="0 0 52.69 52.6"
 xmlns:xlink="http://www.w3.org/1999/xlink">
 <defs>
  <style type="text/css">
   <![CDATA[
    .fil0 {fill:white}
   ]]>
  </style>
 </defs>
 <g id="Capa_x0020_1">
  <metadata id="CorelCorpID_0Corel-Layer"/>
  <path class="fil0" d="M5.39 34.43c-0.52,0.59 -0.6,0.26 -0.91,1.29l-2.29 8.71c0.36,0.52 0.78,0.85 1.2,1.29l3.73 3.7c1.36,1.38 0.83,1.11 3.17,0.51 1.35,-0.35 6.88,-1.63 7.6,-2.26 0.39,-0.34 0.83,-0.83 1.21,-1.22l6.28 -6.26c1.63,-1.7 3.29,-3.24 4.93,-4.93l9.92 -9.9c0.87,-0.85 1.65,-1.63 2.49,-2.5l1.22 -1.22c0.46,-0.48 0.85,-0.76 1.21,-1.3l-3.1 -3.18c-0.75,-0.75 -9.31,-9.41 -9.74,-9.63l-5.38 5.36c-1.79,1.79 -3.63,3.52 -5.35,5.35 -6.02,6.04 -11.77,11.67 -16.17,16.18zm11.94 -0.96l-2.49 2.57c-0.55,0.54 -2.03,2.2 -2.57,2.46 -0.26,0.5 -1.05,0.94 -1.25,1.5 -0.29,0.79 0.12,1.62 0.98,1.71 0.86,0.08 2.42,-1.72 3.19,-2.53l20.13 -20.13c0.35,-0.35 1.13,-0.9 1.09,-1.66 -0.04,-0.78 -0.85,-1.38 -1.72,-1.03 -0.34,0.14 -8.66,8.47 -10.11,9.96l-7.25 7.15z"/>
  <path class="fil0" d="M33.38 6.48c0.27,0.52 5.77,5.85 6.34,6.44l4.75 4.74c0.42,0.44 1.25,1.33 1.69,1.63l1.66 -1.54c1.06,-1.1 4.15,-3.88 4.58,-5.15 0.65,-1.94 0.15,-3.68 -0.84,-4.95l-6.43 -6.46c-1.06,-0.96 -3.26,-1.56 -5.05,-0.91 -1.29,0.47 -3.85,3.32 -5.07,4.54 -0.53,0.54 -1.18,1.09 -1.63,1.66z"/>
  <path class="fil0" d="M-0 52.6c0.29,-0.03 6.32,-1.46 6.74,-1.87 -0.72,-0.63 -1.59,-1.59 -2.43,-2.41 -0.64,-0.63 -2.01,-2.17 -2.53,-2.44l-1.79 6.72z"/>
 </g>
</svg>
